<svg width="500" height="500" xmlns="http://www.w3.org/2000/svg">

 <g>
  <title>Layer 1</title>
  <path stroke-width="5" d="m124,400c1,0 5.98021,-5.4653 10,-14c5.38976,-11.44336 7.29492,-23.95798 10,-44c3.36792,-24.95309 6.18431,-48.97449 9,-70c2.14026,-15.98184 3.44304,-32.04193 5,-49c1.47423,-16.05698 2.85124,-30.0123 4,-43c0.88545,-10.01079 1,-20 1,-32c0,-14 1,-29 1,-41c0,-10 0,-16 0,-20c0,-3 0.64073,-6.05165 0,-10c-1.01308,-6.24289 -4.67261,-11.70848 -7,-18c-1.4305,-3.867 -2,-7 -3,-11c-1,-4 -2,-5 -2,-6c0,-1 -0.06517,0.00071 0,3c0.50012,23.0163 5.35928,63.70673 26,103c18.83273,35.85147 51.9101,72.07245 89,118c29.92758,37.05859 56.29562,64.72156 77,87c19.27872,20.74442 40.33002,37.53476 56,49c9.20172,6.7326 16,11 20,13l1,0l1,0" id="svg_7" stroke="#000" fill="none"/>
  <path d="m132,259c1,0 2.01317,0.39737 8,0c15.09952,-1.0022 29,-3 38,-3c6,0 9,0 14,0c8,0 17,0 22,0c3,0 4,0 5,0c4,0 12,0 19,0c5,0 10,0 13,0c3,0 6.92578,-0.49756 12,-1c0.99515,-0.09854 2,0 3,0c1,0 3,-1 5,-1l3,0" id="svg_8" stroke-width="5" stroke="#000" fill="none"/>
 </g>
</svg>