<svg width="500" height="500" xmlns="http://www.w3.org/2000/svg">

 <g>
  <title>Layer 1</title>
  <path d="m176,145c0,2 -4.68924,16.82057 -14,54c-12.96416,51.76805 -22.94177,98.02008 -34,130c-7.95811,23.01453 -13,39 -17,51l-6,7l-2,2l0,1" id="svg_9" stroke-width="5" stroke="#000" fill="none"/>
  <path d="m172,123c0,-1 1,-1 2,-1c1,0 1.03986,-0.92398 3,-2c5.11145,-2.80591 11.92656,-5.32083 20,-7c11.91063,-2.47726 29.93198,-4.99897 52,-6c18.98047,-0.86098 37.93222,1.49307 58,4c19.94473,2.49155 42.88068,4.03723 58,12c10.80026,5.68808 18.22601,16.83913 26,28c8.24307,11.83434 15.01865,22.79041 17,35c2.08853,12.87004 -0.07764,24.55803 -4,30c-4.13452,5.73634 -12.89932,14.34586 -28,20c-14.32578,5.364 -41.01718,3.00179 -70,4c-29.05167,1.0006 -62.02161,4.21198 -96,3c-28.0535,-1.00064 -46,-4 -53,-4c-2,0 -1.92387,-0.61731 -1,-1c2.61313,-1.0824 3.93813,-5.07858 9,-9c3.95265,-3.06212 8,-4 15,-4c18,0 46.66397,1.91544 81,14c38.89258,13.68825 63.95667,27.80133 73,36c6.83038,6.19241 13.43863,16.8176 17,26c2.28699,5.89658 2.15112,13.0466 -1,23c-3.81778,12.0592 -9.72961,22.22885 -14,27c-5.65903,6.32263 -19.23065,17.71542 -40,26c-22.33069,8.90735 -45.02248,8.63846 -64,10c-22.03409,1.58081 -42.01952,3.86096 -61,3c-22.06802,-1.00104 -41.97504,-4.49973 -57,-5c-8.99502,-0.2995 -13.59399,-1.513 -16,-3c-2.68999,-1.66251 -5.61384,-3.297 -8,-6c-1.47984,-1.67633 -1.38268,-3.07611 -1,-4c0.5412,-1.30655 1,-2 2,-2l1,0" id="svg_10" stroke-width="5" stroke="#000" fill="none"/>
 </g>
</svg>