<svg width="500" height="500" xmlns="http://www.w3.org/2000/svg">

 <g>
  <title>Layer 1</title>
  <path d="m383,191c0,-1 -2.83459,-4.09714 -7,-11c-6.73633,-11.16341 -17.2294,-25.7597 -34,-42c-16.28665,-15.77166 -31.53293,-27.31599 -44,-31c-10.72202,-3.16834 -24.2655,-5.61385 -37,-3c-14.92049,3.06255 -32.92976,17.98644 -57,41c-27.09273,25.90337 -52.146,57.85814 -70,94c-9.13068,18.48325 -16.98709,59.48355 -11,87c4.03395,18.53989 13.40501,30.12698 24,35c11.49188,5.28552 23.90938,6.38177 40,10c19.89919,4.47464 42.2001,9.67651 60,7c13.45026,-2.02249 26.87366,-8.97092 40,-21c16.16913,-14.81754 25.56833,-32.20807 32,-45c5.62854,-11.19461 13,-24 19,-31l0,-1" id="svg_12" stroke-width="5" stroke="#000" fill="none"/>
 </g>
</svg>