<svg width="500" height="500" xmlns="http://www.w3.org/2000/svg">

 <g>
  <title>Layer 1</title>
  <path d="m150,108c0,3 -1.59764,17.09927 1,46c4.34245,48.31297 15.7095,124.97626 18,204c1.44893,49.98901 2.99245,77.81558 4,86c0.12218,0.99249 0,0 0,-2l0,-1" id="svg_15" stroke-width="5" stroke="#000" fill="none"/>
  <path d="m153,103c1,0 0.47427,-1.14935 1,-2c1.17557,-1.90211 3.6837,-4.34355 8,-8c6.56375,-5.56033 21.88039,-9.87496 48,-13c34.87958,-4.17311 68.69223,-7.63944 104,0c29.05969,6.28757 44.35211,23.76355 55,40c10.34708,15.77776 17.85522,29.74583 19,45c1.57333,20.96484 -7.74225,50.06364 -17,87c-7.78366,31.05502 -14.74634,53.87323 -29,73c-15.68481,21.04724 -30.22812,36.76035 -46,52c-15.28906,14.7731 -31.12628,28.67072 -51,38c-18.32936,8.60434 -32.92987,10.34686 -42,12c-6.95647,1.26791 -12,1 -14,1c-1,0 -1.90633,0.10339 -3,1c-2.78833,2.28589 -4,2 -4,3l-1,0l-2,2l-1,1" id="svg_16" stroke-width="5" stroke="#000" fill="none"/>
 </g>
</svg>