<svg width="500" height="500" xmlns="http://www.w3.org/2000/svg">

 <g>
  <title>Layer 1</title>
  <path d="m164,111c0,4 -1.32811,21.03394 0,47c2.00261,39.15341 5.36786,83.00465 6,126c0.50006,34.01102 2,57 2,72c0,15 0,30 0,39l0,1" id="svg_18" stroke-width="5" stroke="#000" fill="none"/>
  <path d="m354,93c-1,0 -7.83789,1.66678 -23,5c-22.80075,5.0125 -46.97739,6.27982 -70,8c-15.98666,1.19448 -26,2 -33,2c-4,0 -7,0 -11,0c-5,0 -14,0 -26,0c-10,0 -15,0 -17,0c-3,0 -6,0 -7,0c-1,0 -2,0 -3,0l-1,0l1,0" id="svg_19" stroke-width="5" stroke="#000" fill="none"/>
  <path d="m355,192c-4,1 -9.96402,3.20911 -21,5c-13.95953,2.26532 -31.04391,0.67546 -51,2c-15.09952,1.0022 -25,3 -30,3c-4,0 -6.83809,0.46552 -12,2c-4.88763,1.45294 -10.07747,1.03891 -16,2c-9.36433,1.51962 -16.85159,4.9951 -27,6c-5.97079,0.59123 -8,0 -9,0c-3,0 -7,1 -8,1c-1,0 -2,0 -3,0c-1,0 -2,0 -3,0l-1,0l-2,1l-1,0" id="svg_20" stroke-width="5" stroke="#000" fill="none"/>
  <path d="m360,357c-2,1 -5,1 -9,1c-5,0 -11,0 -19,0c-7,0 -20.11346,0.38452 -38,4c-21.15909,4.27695 -45.94205,10.34882 -69,14c-20.95215,3.31772 -36.07295,5.72195 -48,9c-10.06702,2.76682 -15.87856,5.49347 -19,6c-0.98709,0.16019 0,0 1,0l1,0l1,-1l1,0" id="svg_21" stroke-width="5" stroke="#000" fill="none"/>
 </g>
</svg>