<svg width="500" height="500" xmlns="http://www.w3.org/2000/svg">

 <g>
  <title>Layer 1</title>
  <path d="m300,85c-3,0 -7.01224,-0.44241 -15,0c-9.04153,0.50076 -19.00632,0.59435 -32,1c-16.02341,0.50024 -34.27383,2.92232 -52,8c-17.33075,4.96441 -34.77359,14.88104 -54,29c-24.04569,17.65799 -51.53102,42.33548 -61,67c-6.60868,17.2141 -4.20065,40.41878 4,62c6.99683,18.41315 14.89463,32.74878 24,45c7.18296,9.66464 17,13 26,13c10,0 20.59421,0.53992 30,-3c8.05101,-3.03006 16.95474,-11.26486 26,-24c10.12947,-14.26163 17.21486,-30.66989 21,-47c2.96997,-12.81325 2,-24 2,-28c0,-2 0,-3 -1,-3c-1,0 -1.90938,0.00206 -2,2c-0.50052,11.03401 1.44305,38.55696 15,74c11.68071,30.53787 23.66383,52.70444 31,65c2.56189,4.29379 3,3 3,1l-1,-10l-2,-5" id="svg_22" stroke-width="5" stroke="#000" fill="none"/>
  <path d="m185,200c1,0 4,0 9,0c8,0 26.33191,0.42566 55,-7c32.45505,-8.40656 57,-16 65,-19l1,-1" id="svg_23" stroke-width="5" stroke="#000" fill="none"/>
 </g>
</svg>