<svg width="500" height="500" xmlns="http://www.w3.org/2000/svg">

 <g>
  <title>Layer 1</title>
  <path d="m129,82c-1,4 -2.49985,16.98126 -3,37c-0.69935,27.99127 -0.5471,75.00258 0,133c0.50002,53.00708 2,91 2,109l0,7l0,3l-1,0" id="svg_26" stroke-width="5" stroke="#000" fill="none"/>
  <path d="m280,85c0,1 0.40399,8.0043 0,27c-1.00021,47.03191 -1.0535,124.02692 -4,211c-2.27081,67.02869 -6,110 -8,130l-1,4l0,-4" id="svg_27" stroke-width="5" stroke="#000" fill="none"/>
  <path d="m136,229c1,0 2,-1 6,-1c8,0 25.17038,1.03896 56,7c31.20258,6.03316 58,15 75,21l8,3l2,0" id="svg_28" stroke-width="5" stroke="#000" fill="none"/>
 </g>
</svg>