<svg width="500" height="500" xmlns="http://www.w3.org/2000/svg">

 <g>
  <title>Layer 1</title>
  <path d="m124,94c4,0 13,1 31,1c30,0 59.97183,-3.49902 91,-5c30.97989,-1.49864 54,-1 64,-2l5,0" id="svg_32" stroke-width="5" stroke="#000" fill="none"/>
  <path d="m209,96c0,3 -2.05457,16.08609 1,47c4.464,45.17824 12.47379,91.9491 16,127c2.31093,22.97086 3,36 3,41c0,4 0,5 0,6l0,1" id="svg_33" stroke-width="5" stroke="#000" fill="none"/>
  <path d="m153,337c1,0 11.80516,-0.88116 28,-4c21.80296,-4.19888 50.04993,-1.76581 90,-4c46.10156,-2.57822 81,-6 94,-6l3,0" id="svg_34" stroke-width="5" stroke="#000" fill="none"/>
 </g>
</svg>