<svg width="500" height="500" xmlns="http://www.w3.org/2000/svg">

 <g>
  <title>Layer 1</title>
  <path d="m126,129c3,0 13.97682,-3.26846 34,-3c39.11169,0.52439 83.88846,12.75909 129,19c32.92792,4.55537 53,6 62,6c3,0 4,0 5,0l2,0" id="svg_36" stroke-width="5" stroke="#000" fill="none"/>
  <path d="m244,139c0,1 0.25157,4.04143 -3,23c-4.64169,27.0639 -10.59151,60.40494 -19,87c-7.72701,24.43958 -17.90077,54.13873 -36,85c-15.29425,26.07846 -30.0963,40.51279 -41,46c-5.64951,2.84308 -7.07613,2.38269 -8,2c-3.91969,-1.6236 -9.95683,-9.41455 -17,-22c-6.9922,-12.49435 -10.99658,-25.87592 -12,-38c-0.74232,-8.96933 0.88134,-16.02521 2,-21c0.90456,-4.02264 3,-8 5,-11l0,-1" id="svg_37" stroke-width="5" stroke="#000" fill="none"/>
 </g>
</svg>