<svg width="500" height="500" xmlns="http://www.w3.org/2000/svg">

 <g>
  <title>Layer 1</title>
  <path d="m182,113c0,2 0.39146,17.01874 -1,42c-1.56117,28.02789 -3.58017,55.44521 -13,83c-8.70992,25.47818 -17,40 -22,50l-4,6l-3,4l-1,2" id="svg_38" stroke-width="5" stroke="#000" fill="none"/>
  <path d="m355,107c-2,3 -12.74545,13.24541 -33,34c-24.69333,25.30295 -49.73959,52.0403 -73,65c-17.20718,9.58711 -28.09315,13.79665 -37,18c-6.06657,2.86296 -11,5 -12,5c-1,0 -1,1 -2,1c-1,0 -9.96458,2.08305 -24,2c-12.04138,-0.07124 -18,-2 -19,-3l0,-1l0,-1" id="svg_39" stroke-width="5" stroke="#000" fill="none"/>
  <path d="m164,222c4,0 11.81183,0.50375 22,7c15.54745,9.91345 34.29439,33.48148 57,66c18.43564,26.40317 35.29971,50.00827 48,68c6.72531,9.52734 10.34314,17.87604 12,23c1.26855,3.9231 4,10 6,15l1,2l0,1" id="svg_40" stroke-width="5" stroke="#000" fill="none"/>
 </g>
</svg>