<svg width="500" height="500" xmlns="http://www.w3.org/2000/svg">

 <g>
  <title>Layer 1</title>
  <path d="m140,63c0,2 -3.5054,7.9178 -7,31c-9.35786,61.80963 -19.78642,152.04243 -33,218c-10.82514,54.03534 -20,92 -24,121l-2,12l0,1" id="svg_44" stroke-width="5" stroke="#000" fill="none"/>
  <path d="m76,442c1,0 2.90778,-0.49622 7,-1c4.96254,-0.61093 12.05026,-0.48203 25,-2c19.10458,-2.23944 42.12666,-4.22556 75,-10c35.15489,-6.17523 65.91882,-13.85284 93,-16c20.95804,-1.66168 41.01108,-2.66556 61,-2c15.02496,0.50027 25,2 28,2l1,0l0,1" id="svg_46" stroke-width="5" stroke="#000" fill="none"/>
 </g>
</svg>