<svg width="500" height="500" xmlns="http://www.w3.org/2000/svg">

 <g>
  <title>Layer 1</title>
  <path d="m98,139c0,1 -1.46336,9.9644 -3,33c-2.86513,42.95103 -7.06068,104.40051 -21,167c-10.54322,47.34808 -17,74 -17,80l-1,0l-1,-6l0,-2" id="svg_47" stroke-width="5" stroke="#000" fill="none"/>
  <path d="m101,143c2,1 6.3501,11.36057 21,37c22.03638,38.5668 44,76 62,112c13,26 23.99913,46.51126 29,58c1.2621,2.89951 1,4 1,5l1,0" id="svg_48" stroke-width="5" stroke="#000" fill="none"/>
  <path d="m250,158c0,8 0.38246,28.293 -6,55c-8.23753,34.46945 -21.59767,71.11008 -33,112c-10.62608,38.10626 -18,61 -19,67l1,0l1,0l1,-3" id="svg_49" stroke-width="5" stroke="#000" fill="none"/>
  <path d="m243,146c2,2 10.63634,9.38957 25,25c23.06152,25.06325 47.97623,61.4543 70,102c21.98755,40.47897 39,72 51,90l5,8l1,1l1,0" id="svg_50" stroke-width="5" stroke="#000" fill="none"/>
 </g>
</svg>