<svg width="500" height="500" xmlns="http://www.w3.org/2000/svg">

 <g>
  <title>Layer 1</title>
  <path d="m133,91c-1.5,3.42188 -1.82071,15.9247 -6,34.21875c-6.49994,28.4522 -8.00139,77.58316 -10.5,133.45313c-2.14365,47.93281 -9,93.53125 -13.5,116.34375l-3,7.98438" id="svg_51" stroke-width="5" stroke="#000" fill="none"/>
  <path d="m135,93c0,1 -0.30705,4.11655 4,15c11.20969,28.32565 34.77943,80.70857 58,144c18.62811,50.77396 30,78 39,89l2,3" id="svg_52" stroke-width="5" stroke="#000" fill="none"/>
  <path d="m261,89c0,1 -1.95865,10.85978 -5,35c-4.39101,34.85281 -3,68 -3,94c0,28 -2.99927,57.94241 -4,84c-0.53728,13.98969 0,22 0,31c0,10 0,16 0,19l-1,0l0,1l1,0" id="svg_53" stroke-width="5" stroke="#000" fill="none"/>
 </g>
</svg>