<svg width="500" height="500" xmlns="http://www.w3.org/2000/svg">

 <g>
  <title>Layer 1</title>
  <path d="m270,130c0,-1 -0.6319,-1.71317 -4,-3c-6.60538,-2.52368 -16,-1 -32,-1c-16,0 -29.03386,0.94392 -39,7c-13.04474,7.92685 -29.90236,19.51723 -42,37c-18.07494,26.1208 -33.27879,64.10188 -39,102c-4.18227,27.70395 2.17302,48.34387 10,66c8.15581,18.39789 21.0788,33.47778 38,43c19.11319,10.75574 40.32742,20.25494 57,24c11.74884,2.63907 25.38063,-0.23602 38,-7c13.45361,-7.21115 24.51697,-18.05679 34,-35c14.43057,-25.78293 25.31512,-56.2782 33,-85c5.77957,-21.60083 6.49985,-42.98126 7,-63c0.37463,-14.99532 -1.36166,-24.3054 -4,-29c-2.44962,-4.35883 -5.52011,-8.40967 -9,-12c-4.45642,-4.59785 -10,-8 -15,-13c-4,-4 -7.79626,-7.16124 -11,-11c-2.86551,-3.43349 -7.36703,-7.65813 -12,-13c-3.276,-3.77727 -7.9183,-8.11214 -12,-11c-2.94336,-2.08247 -6,-4 -9,-5l-1,0l-1,0l-1,0" id="svg_54" stroke-width="5" stroke="#000" fill="none"/>
 </g>
</svg>