<svg width="500" height="500" xmlns="http://www.w3.org/2000/svg">

 <g>
  <title>Layer 1</title>
  <path d="m174,130c-1,4 -3.49991,18.98558 -4,45c-0.82646,42.99205 1.44684,90.07309 -1,131c-1.50269,25.13449 -5,36 -6,39l0,1" id="svg_55" stroke-width="5" stroke="#000" fill="none"/>
  <path d="m173,106c0,-1 3.96907,-1.24763 11,-2c13.95599,-1.4934 46.26309,-7.30811 82,4c37.09726,11.73856 67.03055,33.63141 90,52c10.50708,8.40247 14.74069,18.98495 14,34c-0.5994,12.15076 -3.52222,16.38074 -6,19c-3.43607,3.63226 -14.92801,12.51859 -36,20c-17.3764,6.16933 -30.96262,3.50063 -41,3c-11.98511,-0.59776 -26.97324,0.49968 -41,1c-8.99428,0.32082 -13.97418,-0.13911 -19,-1c-6.96956,-1.19383 -18.04486,-0.59109 -29,-2c-6.03308,-0.77589 -8.87856,-2.49345 -12,-3c-3.94835,-0.64073 -9.30449,0.53073 -13,-1c-1.30656,-0.5412 -3,-1 -4,-1l-3,0" id="svg_56" stroke-width="5" stroke="#000" fill="none"/>
 </g>
</svg>