<svg width="500" height="500" xmlns="http://www.w3.org/2000/svg">

 <g>
  <title>Layer 1</title>
  <path d="m225,127c-2,1 -7.23575,5.81439 -19,21c-18.37267,23.71593 -41.05573,61.17738 -59,109c-18.10858,48.26053 -32.29601,88.80832 -31,108c0.70343,10.4166 11.01038,21.4957 27,31c16.15056,9.59998 34.41035,12.01773 49,8c14.68491,-4.04398 35.5117,-14.53143 58,-30c22.78815,-15.6748 43.32645,-45.36679 60,-82c15.23209,-33.46616 25.26422,-69.80348 29,-98c3.03229,-22.8868 3.07083,-42.32735 -2,-57c-2.48761,-7.19804 -7,-11 -11,-13c-4,-2 -9.01352,-2.56504 -16,-3c-8.04669,-0.50097 -14.02997,-0.51127 -18,-1c-4.09222,-0.50378 -9.96262,-0.50062 -20,0c-7.99008,0.39851 -14.80243,-1.43288 -21,-4c-2.92157,-1.21015 -8,-1 -16,-1c-8,0 -12,0 -14,0c-1,0 -5,2 -13,5l-3,1" id="svg_58" stroke-width="5" stroke="#000" fill="none"/>
  <path d="m251,266c3,2 11.83743,21.59909 37,69c25.8223,48.64371 47,79 64,97l9,7l2,2l1,0" id="svg_59" stroke-width="5" stroke="#000" fill="none"/>
 </g>
</svg>