<svg width="500" height="500" xmlns="http://www.w3.org/2000/svg">

 <g>
  <title>Layer 1</title>
  <path d="m202,112c-3,5 -8.05804,15.98382 -15,41c-11.09282,39.97437 -18.45638,82.33646 -29,127c-7.85876,33.29022 -17,53 -24,69l-6,14l-5,11l-2,3" id="svg_60" stroke-width="5" stroke="#000" fill="none"/>
  <path d="m194,109c1,0 3.02248,-0.63345 6,-1c4.09221,-0.50378 11.06485,-0.17403 22,4c20.12442,7.68166 49.15009,22.40674 76,43c23.0658,17.69093 34.48868,31.72336 36,44c1.09964,8.93257 -2.83313,14.27747 -11,19c-14.71664,8.51001 -36.65491,16.99892 -60,20c-23.82477,3.06274 -46,3 -64,7c-9,2 -11.29289,1.29289 -12,2c-0.70711,0.70711 1,0 0,0c-3,0 -5.90283,-0.2242 -8,-1c-3.867,-1.4305 -8.94672,-1.49873 -16,-2c-2.99245,-0.21266 -4,-1 -3,-1c1,0 2.87856,-1.49345 6,-2c0.98709,-0.16019 2,-1 5,-1c8,0 23.20514,1.12901 52,21c54.50159,37.61087 90.53925,73.37439 144,120c28.28918,24.6723 79.07941,65.89508 91,75c9.06104,6.92081 13,9 14,9l1,0" id="svg_61" stroke-width="5" stroke="#000" fill="none"/>
 </g>
</svg>