<svg width="500" height="500" xmlns="http://www.w3.org/2000/svg">

 <g>
  <title>Layer 1</title>
  <path d="m337,135c0,-2 -0.67862,-6.12703 -2,-9c-2.43649,-5.29749 -7.3067,-12.83583 -18,-21c-13.22855,-10.0998 -32.78412,-16.5459 -56,-19c-25.87506,-2.7352 -49.6738,0.56245 -71,17c-29.68811,22.88265 -55.25761,56.05081 -63,85c-6.99502,26.15472 5.74985,57.1649 27,77c21.93082,20.47043 46.01981,29.96945 63,41c23.02695,14.95862 44.95248,35.82028 54,53c6.4902,12.32385 6.36304,23.90607 0,32c-10.93411,13.90845 -34.74002,24.44647 -61,26c-28.9666,1.71362 -63.4153,-3.17459 -93,-21c-27.9657,-16.84991 -41,-43 -50,-60l-4,-7" id="svg_65" stroke-width="5" stroke="#000" fill="none"/>
 </g>
</svg>