<svg width="500" height="500" xmlns="http://www.w3.org/2000/svg">

 <g>
  <title>Layer 1</title>
  <path d="m137,97c0,1 1.27759,7.88847 10,30c19.62778,49.75691 36.98804,117.93457 61,190c16.90825,50.74554 31,72 36,77l0,-1l0,-1l0,-2" id="svg_69" stroke-width="5" stroke="#000" fill="none"/>
  <path d="m340,90c0,5 -7.21866,26.94749 -16,64c-9.23013,38.94617 -18.38693,75.88219 -31,118c-11.34912,37.89719 -21.96384,72.42459 -31,93c-2.69739,6.142 -2.33749,10.31 -4,13c-1.487,2.40601 -1.61731,3.07611 -2,4c-0.5412,1.30655 -2.23174,4.92767 -4,11c-1.15277,3.95868 -2,5 -2,6l-2,1l0,1" id="svg_70" stroke-width="5" stroke="#000" fill="none"/>
 </g>
</svg>