<svg width="500" height="500" xmlns="http://www.w3.org/2000/svg">

 <g>
  <title>Layer 1</title>
  <path d="m43,103c1,0 1.30655,5.01851 2,18c1.50214,28.12016 10.56791,73.34233 22,118c8.00534,31.27164 17.94511,57.02032 25,76c2.97687,8.00864 3,11 4,11c1,0 0.58908,-1.73892 7,-17c13.2363,-31.50873 28,-69 47,-105l14,-27l7,-15l3,-7" id="svg_71" stroke-width="5" stroke="#000" fill="none"/>
  <path d="m172,151c2,5 5.774,15.09381 15,37c12.69048,30.13223 28.25874,62.40494 46,94c15.36632,27.3656 22.52786,42.76395 27,45c0.89444,0.4472 2.29349,0.11862 5,-7c5.61905,-14.77924 9.92203,-38.45551 26,-75c27.19974,-61.82375 71,-137 108,-187l17,-22l3,-3" id="svg_72" stroke-width="5" stroke="#000" fill="none"/>
 </g>
</svg>