<svg width="500" height="500" xmlns="http://www.w3.org/2000/svg">

 <g>
  <title>Layer 1</title>
  <path d="m91,92c1,0 7.9712,-1.49963 21,-2c26.98012,-1.03616 62.21898,-0.17973 103,8c39.24338,7.87131 68.32684,17.16524 82,23c4.11328,1.75526 4.17844,3.01604 4,4c-1.52448,8.40691 -9.59033,23.2869 -23,42c-14.56198,20.32114 -31.55891,42.46503 -60,69c-29.5836,27.60092 -59.41995,43.37497 -82,59c-15.29598,10.58456 -24,21 -29,26c-1,1 -0.09222,1.49622 4,2c6.94756,0.85529 22.06908,-0.81067 62,3c69.14806,6.59891 139,17 213,25l51,6l23,0l4,0" id="svg_78" stroke-width="5" stroke="#000" fill="none"/>
 </g>
</svg>